<svg width="34" height="37" viewBox="0 0 34 37" fill="none" xmlns="http://www.w3.org/2000/svg">
<g clip-path="url(#clip0_25320_71445)">
<path d="M33.3544 19.6232C33.3657 22.2049 33.3722 24.785 33.3948 27.3667C33.398 27.7055 33.2573 27.8827 32.9695 28.0458C27.77 30.9757 22.5739 33.9135 17.3809 36.8546C17.106 37.0113 16.8747 37.0698 16.5658 36.891C14.2984 35.5787 12.0181 34.2839 9.74268 32.9844C9.75561 32.6599 10.0289 32.5649 10.2553 32.4335C12.1976 31.3034 14.1836 30.2444 16.1195 29.1032C16.3507 28.967 16.5868 28.8372 16.8698 28.8436C19.9442 27.123 23.0202 25.4039 26.0946 23.6833C26.1674 23.5963 26.2159 23.4902 26.3064 23.4143C28.2827 22.2065 30.3415 21.1381 32.3436 19.9731C32.6428 19.7989 32.929 19.4887 33.3544 19.6232Z" fill="white"/>
<path d="M0.546945 17.353C0.534007 14.7744 0.525921 12.1943 0.500045 9.61422C0.496811 9.26598 0.666621 9.10294 0.944786 8.94624C6.14098 6.01631 11.3356 3.08005 16.5269 0.142214C16.7727 0.0029203 16.9813 -0.0714754 17.2676 0.0947278C19.5576 1.41961 21.8557 2.72865 24.1522 4.04245C24.0762 4.40177 23.7543 4.5284 23.4826 4.67561C21.6325 5.68865 19.8115 6.75235 17.9727 7.78598C17.6703 7.95535 17.3614 8.1168 17.0088 8.16746C14.3097 9.67278 11.6089 11.1765 8.91131 12.6866C8.51832 12.9066 8.14474 13.1599 7.76145 13.3989C6.66335 14.2473 5.39543 14.8235 4.20352 15.5184C3.23641 16.0819 2.27577 16.6565 1.28279 17.1757C1.05476 17.296 0.844517 17.5017 0.546945 17.353Z" fill="white"/>
<path d="M0.546683 17.353C2.73319 16.1262 4.92131 14.9011 7.1062 13.6712C7.31483 13.554 7.50566 13.4005 7.7628 13.3989C7.77089 16.5837 7.79353 19.7669 7.77574 22.9517C7.77251 23.4914 7.93585 23.7937 8.42426 24.0644C11.2512 25.6362 14.0571 27.2444 16.8711 28.8416C14.7186 30.0794 12.566 31.3172 10.4167 32.5582C10.187 32.6912 9.96872 32.8415 9.74392 32.9824C6.78276 31.3235 3.82483 29.6615 0.860427 28.0121C0.585496 27.8586 0.499783 27.6671 0.503017 27.3758C0.51919 24.0359 0.532128 20.6945 0.546683 17.353Z" fill="white"/>
<path d="M26.256 23.5456C26.2026 23.5915 26.1476 23.6374 26.0942 23.6833C26.0764 22.0814 26.0764 22.0815 24.4576 22.0815C22.1983 22.0815 19.939 22.064 17.6797 22.0941C17.1008 22.102 16.8792 21.9817 16.8921 21.3612C16.9342 19.4665 16.9229 17.5702 16.897 15.6755C16.8905 15.1563 16.9956 14.9379 17.5956 14.9395C22.6527 14.9616 27.7082 14.9585 32.7653 14.9426C33.2651 14.941 33.4236 15.0835 33.3961 15.5679C33.3508 16.3815 33.3637 17.1982 33.3524 18.0118C32.9206 18.6292 32.209 18.8698 31.5928 19.2228C30.1325 20.0601 28.6624 20.8832 27.1923 21.7063C26.6958 21.9849 26.3918 22.2951 26.4452 22.8792C26.4662 23.1151 26.4387 23.3557 26.256 23.5456Z" fill="white"/>
<path d="M17.0088 8.1676C18.998 7.02318 20.9888 5.87875 22.978 4.73274C23.371 4.50638 23.7608 4.27212 24.1521 4.04102C27.1198 5.6983 30.0842 7.35875 33.055 9.0097C33.2944 9.14266 33.3947 9.30412 33.3914 9.57479C33.3801 10.6559 33.3753 11.737 33.393 12.8165C33.3995 13.1854 33.2798 13.3247 32.8885 13.3231C30.7343 13.3104 28.5801 13.3167 26.4244 13.3167C26.1753 13.3167 25.9554 13.2487 25.737 13.1252C22.8309 11.4711 19.9198 9.82014 17.0088 8.1676Z" fill="white"/>
<path d="M26.1396 23.6831C26.1379 23.6293 26.1428 23.5739 26.1347 23.5216C25.9795 22.545 26.2738 21.9387 27.2668 21.4433C29.3498 20.4049 31.3309 19.1687 33.3541 18.0132C33.3541 18.564 33.3541 19.1133 33.3557 19.6641C31.1013 20.9526 28.8484 22.2411 26.5924 23.5248C26.4549 23.6008 26.29 23.6308 26.1396 23.6831Z" fill="white"/>
</g>
<defs>
<clipPath id="clip0_25320_71445">
<rect width="154" height="37" fill="white" transform="translate(0.5)"/>
</clipPath>
</defs>
</svg>
